<svg width="316" height="376" xmlns="http://www.w3.org/2000/svg">
 <g>
  <title>Layer 1</title>
  <path d="m308.10699,275.26199c2.401,-4.159 3.89301,-8.845 3.89301,-13.05301l0,-146.06898c0,-4.208 -1.49002,-8.893 -3.892,-13.052l-149.108,86.08701l149.10699,86.08699z" fill="#00599C" id="svg_1"/>
  <path d="m172.25,358.19299l126.5,-73.034c3.64401,-2.104 6.95599,-5.737 9.35699,-9.897l-149.10699,-86.08699l-149.107,86.088c2.401,4.159 5.714,7.793 9.357,9.896l126.5,73.034c7.287,4.20801 19.213,4.20801 26.5,0z" fill="#004482" id="svg_2"/>
  <path d="m308.108,103.087c-2.40201,-4.16 -5.715,-7.793 -9.358,-9.897l-126.5,-73.034c-7.287,-4.208 -19.213,-4.208 -26.5,0l-126.5,73.034c-7.288,4.207 -13.25,14.535 -13.25,22.95l0,146.06898c0,4.20801 1.491,8.89401 3.893,13.05301l149.107,-86.08699l149.108,-86.08801l0,0.00001z" fill="#659AD2" id="svg_3"/>
  <path d="m159,291.17499c-56.243,0 -102,-45.757 -102,-102s45.757,-102 102,-102c36.29201,0 70.13901,19.53 88.33099,50.968l-44.14299,25.54401c-9.10501,-15.73601 -26.03801,-25.51201 -44.188,-25.51201c-28.12201,0 -51,22.87801 -51,51c0,28.121 22.87799,51 51,51c18.15199,0 35.08501,-9.776 44.19099,-25.515l44.14301,25.543c-18.192,31.44102 -52.03999,50.972 -88.334,50.972z" fill="#FFF" id="svg_4"/>
  <path fill="#FFF" d="m249.666,172.175l-11.332,0l0,11.33299l-11.334,0l0,11.33301l11.334,0l0,11.334l11.332,0l0,-11.334l11.334,0l0,-11.33301l-11.334,0l0,-11.33299zm42.49998,0l-11.33197,0l0,11.33299l-11.33401,0l0,11.33301l11.33401,0l0,11.334l11.33197,0l0,-11.334l11.33401,0l0,-11.33301l-11.33401,0l0,-11.33299z" id="svg_5"/>
 </g>

</svg>