<svg width="285" height="363" xmlns="http://www.w3.org/2000/svg">

 <g>
  <title>Layer 1</title>
  <path id="svg_1" fill="#5382a1" d="m273.539,431.54599zm-180.385,-139.621s-14.178,8.245 10.09,11.035c29.39999,3.354 44.42599,2.87299 76.825,-3.259c0,0 8.51801,5.341 20.414,9.96701c-72.63,31.12799 -164.37601,-1.80301 -107.32901,-17.74301m-8.875,-40.62s-15.902,11.771 8.384,14.28299c31.40601,3.24002 56.208,3.505 99.12501,-4.759c0,0 5.93599,6.01801 15.26999,9.30902c-87.814,25.67798 -185.62299,2.02499 -122.77899,-18.83301"/>
  <path id="svg_2" fill="#f8981d" d="m159.09801,182.39999c17.896,20.60399 -4.702,39.14499 -4.702,39.14499s45.44099,-23.45799 24.57201,-52.83299c-19.49101,-27.394 -34.438,-41.005 46.47899,-87.93399c0,0 -127.01299,31.722 -66.349,101.62199"/>
  <path id="svg_3" fill="#5382a1" d="m255.15701,319.97s10.492,8.64499 -11.55501,15.33301c-41.92299,12.69998 -174.48799,16.535 -211.31398,0.50598c-13.238,-5.759 11.587,-13.75098 19.396,-15.42798c8.144,-1.76602 12.798,-1.43701 12.798,-1.43701c-14.722,-10.371 -95.157,20.36401 -40.857,29.16599c148.084,24.01501 269.943,-10.814 231.53199,-28.13998m-155.18501,-112.752s-67.431,16.01599 -23.879,21.832c18.389,2.46199 55.047,1.905 89.19299,-0.95601c27.90601,-2.35399 55.927,-7.35899 55.927,-7.35899s-9.84,4.214 -16.959,9.075c-68.47499,18.009 -200.75599,9.631 -162.67399,-8.78999c32.206,-15.56801 58.392,-13.802 58.392,-13.802m120.96299,67.614c69.608,-36.17101 37.42401,-70.931 14.96001,-66.248c-5.506,1.146 -7.961,2.13901 -7.961,2.13901s2.04399,-3.20201 5.948,-4.58801c44.44099,-15.62399 78.619,46.08101 -14.34601,70.52c0,0.00101 1.07701,-0.96201 1.399,-1.823"/>
  <path id="svg_4" fill="#f8981d" d="m178.968,5s38.55,38.563 -36.563,97.862c-60.233,47.56799 -13.735,74.69 -0.02499,105.67799c-35.159,-31.722 -60.96101,-59.64699 -43.65101,-85.63699c25.40701,-38.151 95.79301,-56.64799 80.23901,-117.903"/>
 </g>
</svg>